#!OML:ASF H:\Terrain\Walking\May29\JustinRory\Justin.ASF
:FULLY-SPECIFIED
:DEGREES
34
root 0.703615 17.5185 -1.74033 0.160751 5.8289 2.34973
lowerback 4.81597 -0.346808 -7.21156
upperback -0.909733 -0.969128 -1.91139
thorax -3.56874 -0.34993 2.13612
lowerneck -11.9663 18.5076 -0.990957
upperneck 14.4737 26.5126 -5.86494
head 7.05532 12.2036 0.902647
rclavicle 2.01813e-014 2.46493e-014
rhumerus -11.1575 -47.4036 -3.98707
rradius 57.2662
rwrist -51.9647
rhand -7.43624 22.2633
rfingers 7.12502
rthumb 18.4512 -6.88167
lclavicle 2.01813e-014 2.46493e-014
lhumerus 28.6901 42.1912 82.4627
lradius 50.7511
lwrist 22.035
lhand 9.20342 43.5597
lfingers 7.12502
lthumb 34.3704 70.2605
rfemur -24.922 -1.80045 17.8842
rtibia 21.503
rfoot 1.26275 -3.81965
rtoes -2.85878
lfemur 14.091 -1.51205 -21.4224
ltibia 19.0063
lfoot -11.185 -5.81175
ltoes -26.8716
35
root 0.687767 17.5259 -1.56314 0.00372586 5.72601 1.96354
lowerback 4.61073 -0.2426 -6.65552
upperback -0.73795 -0.772092 -2.01248
thorax -3.29784 -0.276075 1.70508
lowerneck -10.5574 18.3771 -0.580552
upperneck 12.3621 26.1585 -7.06451
head 6.35467 12.1327 0.247646
rclavicle 5.2181e-016 4.77083e-015
rhumerus -13.01 -48.0766 -2.41835
rradius 57.2878
rwrist -52.0899
rhand -6.63292 22.3481
rfingers 7.12502
rthumb 19.2238 -6.72178
lclavicle 5.2181e-016 4.77083e-015
lhumerus 28.6098 42.0358 82.4656
lradius 51.1729
lwrist 22.1929
lhand 9.25875 43.8301
lfingers 7.12502
lthumb 34.423 70.519
rfemur -24.4784 -2.06277 18.5746
rtibia 21.6449
rfoot 2.44314 -3.0788
rtoes -4.93634
lfemur 13.9631 -1.33507 -20.8067
ltibia 20.4511
lfoot -10.4081 -6.27307
ltoes -28.8031
36
root 0.660076 17.5413 -1.38765 -0.0912944 5.49622 1.53737
lowerback 4.40074 -0.11202 -6.25227
upperback -0.654713 -0.5539 -2.04362
thorax -3.11262 -0.182138 1.43157
lowerneck -9.45297 18.3266 -0.359253
upperneck 10.8537 25.924 -7.67202
head 5.79811 12.1147 -0.150986
rclavicle 6.85807e-015 9.54166e-015
rhumerus -14.6343 -48.6615 -0.962323
rradius 57.3103
rwrist -52.1367
rhand -6.84987 22.4189
rfingers 7.12502
rthumb 19.0152 -6.67164
lclavicle 6.85807e-015 9.54166e-015
lhumerus 28.424 41.9512 82.2723
lradius 51.2859
lwrist 22.2199
lhand 9.70039 43.9214
lfingers 7.12502
lthumb 34.8421 70.5142
rfemur -24.1101 -1.8903 19.3438
rtibia 22.0203
rfoot 2.76837 -3.08142
rtoes -6.82637
lfemur 13.6114 -1.30618 -20.1168
ltibia 22.0522
lfoot -9.26316 -7.02917
ltoes -27.2758
37
root 0.635193 17.5527 -1.21383 -0.184947 5.4008 1.13142
lowerback 4.37699 -0.0340608 -6.02018
upperback -0.685447 -0.432783 -1.8965
thorax -3.13949 -0.123664 1.44588
lowerneck -9.39165 18.3865 -0.829714
upperneck 10.6915 25.9733 -7.24829
head 5.62114 12.1679 -0.0102928
rclavicle 1.93536e-014 -1.11319e-014
rhumerus -15.7391 -49.3657 0.338759
rradius 57.0286
rwrist -51.9581
rhand -7.15165 22.6731
rfingers 7.12502
rthumb 18.725 -6.4457
lclavicle 1.93536e-014 -1.11319e-014
lhumerus 27.8458 41.9857 82.0359
lradius 51.3951
lwrist 22.3604
lhand 10.3684 43.2712
lfingers 7.12502
lthumb 35.4757 69.7148
rfemur -23.7497 -1.46849 19.9734
rtibia 22.5836
rfoot 2.60568 -3.23878
rtoes -5.9205
lfemur 13.1792 -1.50294 -19.4775
ltibia 23.8231
lfoot -7.85991 -7.72604
ltoes -24.0995
38
root 0.619837 17.5542 -1.04407 -0.318769 5.35133 0.659062
lowerback 4.29517 -0.0108278 -5.6361
upperback -0.604662 -0.367816 -1.79791
thorax -3.01461 -0.101751 1.32902
lowerneck -10.296 18.4853 -1.00342
upperneck 11.5468 26.1611 -6.57444
head 5.92722 12.2195 0.336096
rclavicle -1.61388e-014 -7.95139e-015
rhumerus -16.9027 -50.0443 1.40667
rradius 56.9704
rwrist -52.0454
rhand -7.62275 23.2436
rfingers 7.12502
rthumb 18.2718 -5.91818
lclavicle -1.61388e-014 -7.95139e-015
lhumerus 27.6707 42.1737 81.9872
lradius 51.4274
lwrist 22.3535
lhand 10.5459 43.2095
lfingers 7.12502
lthumb 35.644 69.6127
rfemur -23.4169 -1.2086 20.6146
rtibia 23.2911
rfoot 2.1818 -3.04685
rtoes -2.68965
lfemur 12.7674 -1.53651 -18.7278
ltibia 25.7306
lfoot -6.18127 -8.28423
ltoes -22.3425
39
root 0.596126 17.5647 -0.876678 -0.446009 5.13397 0.0274218
lowerback 4.1024 -0.010775 -5.12551
upperback -0.443119 -0.318374 -1.74401
thorax -2.74309 -0.0936358 1.09625
lowerneck -10.0746 18.5601 -0.504956
upperneck 10.7926 26.1719 -7.08107
head 5.78386 12.254 0.0943082
rclavicle 4.09372e-015 1.59028e-015
rhumerus -17.6528 -51.0496 1.84943
rradius 56.9639
rwrist -51.7181
rhand -8.35008 23.7387
rfingers 7.12502
rthumb 17.572 -5.48722
lclavicle 4.09372e-015 1.59028e-015
lhumerus 28.0338 42.6767 82.1217
lradius 51.382
lwrist 21.9391
lhand 11.2621 43.3968
lfingers 7.12502
lthumb 36.3224 69.6334
rfemur -23.0788 -0.812028 21.4496
rtibia 24.0377
rfoot 1.27515 -2.88811
rtoes -1.37882
lfemur 12.1116 -1.22458 -17.7034
ltibia 27.7109
lfoot -4.20073 -8.80774
ltoes -21.5838
40
root 0.568156 17.5887 -0.713387 -0.531904 5.01963 -0.0360711
lowerback 4.2163 -0.0208364 -5.30393
upperback -0.498613 -0.350277 -1.70095
thorax -2.8619 -0.103005 1.24252
lowerneck -9.34296 18.676 -0.251085
upperneck 9.87824 26.2578 -7.70942
head 5.49971 12.338 -0.207663
rclavicle 9.88643e-015 7.15625e-015
rhumerus -18.1601 -51.6536 2.36541
rradius 56.895
rwrist -51.5953
rhand -7.36771 23.4577
rfingers 7.12502
rthumb 18.5171 -5.68093
lclavicle 9.88643e-015 7.15625e-015
lhumerus 27.6137 43.1074 81.9025
lradius 51.5158
lwrist 21.8049
lhand 12.1311 43.1935
lfingers 7.12502
lthumb 37.1447 69.2204
rfemur -22.6666 -0.407553 21.6063
rtibia 24.7243
rfoot 0.19796 -3.10489
rtoes -0.42528
lfemur 11.2274 -0.869094 -17.2847
ltibia 29.7329
lfoot -1.96676 -9.35396
ltoes -21.7727
41
root 0.536547 17.6094 -0.549983 -0.703988 5.0345 0.0118418
lowerback 4.48917 0.0312036 -5.66587
upperback -0.608799 -0.322141 -1.58461
thorax -3.12981 -0.0739725 1.56331
lowerneck -9.80201 18.8012 -0.594363
upperneck 10.8019 26.5222 -7.16623
head 5.75583 12.4235 0.0878299
rclavicle 1.26498e-014 2.38542e-014
rhumerus -19.2373 -51.6565 3.54054
rradius 57.1993
rwrist -52.5624
rhand -5.91875 23.0131
rfingers 7.12502
rthumb 19.9105 -5.987
lclavicle 1.26498e-014 2.38542e-014
lhumerus 26.96 43.2934 81.6984
lradius 51.4857
lwrist 21.9912
lhand 12.5572 43.2853
lfingers 7.12502
lthumb 37.5476 69.2062
rfemur -22.1248 -0.101809 21.6417
rtibia 25.2951
rfoot -0.695542 -3.35763
rtoes 1.45588
lfemur 10.4038 -0.621066 -16.9579
ltibia 31.8541
lfoot 0.574921 -9.85241
ltoes -19.958
42
root 0.519783 17.6206 -0.385236 -0.991239 5.31398 -0.250128
lowerback 4.63499 -0.0250233 -5.40943
upperback -0.500938 -0.389555 -1.62667
thorax -3.09675 -0.114799 1.38211
lowerneck -10.5643 18.9682 -0.561726
upperneck 11.6136 26.7712 -6.55288
head 6.0595 12.5149 0.390907
rclavicle 4.72385e-015 9.54166e-015
rhumerus -20.5242 -52.0333 4.48902
rradius 57.56
rwrist -53.2294
rhand -4.12059 22.1874
rfingers 7.12502
rthumb 21.6382 -6.6235
lclavicle 4.72385e-015 9.54166e-015
lhumerus 26.8492 43.3974 81.5362
lradius 51.3424
lwrist 22.1742
lhand 13.3276 43.4354
lfingers 7.12502
lthumb 38.2752 69.1592
rfemur -21.4356 -0.637711 22.0777
rtibia 25.7778
rfoot -1.56195 -3.03319
rtoes 1.57928
lfemur 9.64204 -0.626839 -16.3312
ltibia 34.0414
lfoot 3.30891 -10.1026
ltoes -16.5247
43
root 0.509479 17.6222 -0.226208 -1.2135 5.63777 -0.720011
lowerback 4.71535 -0.138628 -4.803
upperback -0.395737 -0.510655 -1.74345
thorax -3.03029 -0.189009 0.932143
lowerneck -10.4853 19.1026 -0.0765295
upperneck 11.3523 26.8594 -6.61829
head 6.03544 12.5861 0.315041
rclavicle 1.01924e-014 1.74931e-014
rhumerus -21.6509 -52.5085 5.09365
rradius 57.74
rwrist -52.9063
rhand -3.44533 21.8653
rfingers 7.12502
rthumb 22.2865 -6.86952
lclavicle 1.01924e-014 1.74931e-014
lhumerus 26.6802 43.3709 81.1833
lradius 51.3918
lwrist 22.4364
lhand 14.074 43.5443
lfingers 7.12502
lthumb 38.9793 69.0702
rfemur -20.7829 -1.42698 22.7732
rtibia 26.1633
rfoot -2.37948 -2.69854
rtoes -0.15554
lfemur 8.68565 -0.664802 -15.4822
ltibia 36.2951
lfoot 5.73802 -10.4178
ltoes -14.3656
